{"asset":{"version":"2.0","generator":"THREE.GLTFExporter"},"scenes":[{"nodes":[0]}],"scene":0,"nodes":[{"name":"default","mesh":0}],"bufferViews":[{"buffer":0,"byteOffset":0,"byteLength":8928,"target":34962,"byteStride":12},{"buffer":0,"byteOffset":8928,"byteLength":8928,"target":34962,"byteStride":12},{"buffer":0,"byteOffset":17856,"byteLength":5952,"target":34962,"byteStride":8},{"buffer":0,"byteOffset":23808,"byteLength":5952,"target":34962,"byteStride":8},{"buffer":0,"byteOffset":29760,"byteLength":1488,"target":34963}],"buffers":[{"byteLength":31248,"uri":"data:application/octet-stream;base64,"}],"accessors":[{"bufferView":0,"componentType":5126,"count":744,"max":[6,6.661338147750939e-16,6],"min":[-6,-6,-6],"type":"VEC3"},{"bufferView":1,"componentType":5126,"count":744,"max":[1,1,1],"min":[-1,-1,-1],"type":"VEC3"},{"bufferView":2,"componentType":5126,"count":744,"max":[0.8333333134651184,0.8333333134651184],"min":[0.1666666716337204,0],"type":"VEC2"},{"bufferView":3,"componentType":5126,"count":744,"max":[-1,0],"min":[-1,0],"type":"VEC2"},{"bufferView":4,"componentType":5123,"count":744,"max":[743],"min":[0],"type":"SCALAR"}],"materials":[{"pbrMetallicRoughness":{"metallicFactor":0.5,"roughnessFactor":0.5,"baseColorTexture":{"index":0}},"alphaMode":"MASK","alphaCutoff":0.01}],"textures":[{"sampler":0,"source":0}],"samplers":[{"magFilter":9728,"minFilter":9728,"wrapS":33071,"wrapT":33071}],"images":[{"mimeType":"image/png","uri":"data:image/png;base64,"}],"meshes":[{"primitives":[{"mode":4,"attributes":{"POSITION":0,"NORMAL":1,"TEXCOORD_0":2,"_UVANIMATION":3},"indices":4,"material":0}]}]}