{"asset":{"version":"2.0","generator":"THREE.GLTFExporter"},"scenes":[{"name":"AuxScene","nodes":[0]}],"scene":0,"nodes":[{"mesh":0}],"bufferViews":[{"buffer":0,"byteOffset":0,"byteLength":7872,"target":34962,"byteStride":12},{"buffer":0,"byteOffset":7872,"byteLength":7872,"target":34962,"byteStride":12},{"buffer":0,"byteOffset":15744,"byteLength":5248,"target":34962,"byteStride":8},{"buffer":0,"byteOffset":20992,"byteLength":5248,"target":34962,"byteStride":8},{"buffer":0,"byteOffset":26240,"byteLength":2160,"target":34963}],"buffers":[{"byteLength":28400,"uri":"data:application/octet-stream;base64,"}],"accessors":[{"bufferView":0,"componentType":5126,"count":656,"max":[6,1.3322676295501878e-15,6],"min":[-6,-10,-6],"type":"VEC3"},{"bufferView":1,"componentType":5126,"count":656,"max":[1,1,1],"min":[-1,-1,-1],"type":"VEC3"},{"bufferView":2,"componentType":5126,"count":656,"max":[1,1],"min":[0,0],"type":"VEC2"},{"bufferView":3,"componentType":5126,"count":656,"max":[-1,0],"min":[-1,0],"type":"VEC2"},{"bufferView":4,"componentType":5123,"count":1080,"max":[655],"min":[0],"type":"SCALAR"}],"materials":[{"pbrMetallicRoughness":{"metallicFactor":0.5,"roughnessFactor":0.5,"baseColorTexture":{"index":0}},"alphaMode":"MASK","alphaCutoff":0.01}],"textures":[{"sampler":0,"source":0}],"samplers":[{"magFilter":9728,"minFilter":9728,"wrapS":33071,"wrapT":33071}],"images":[{"mimeType":"image/png","uri":"data:image/png;base64,"}],"meshes":[{"primitives":[{"mode":4,"attributes":{"POSITION":0,"NORMAL":1,"TEXCOORD_0":2,"_UVANIMATION":3},"indices":4,"material":0}]}]}