{"asset":{"version":"2.0","generator":"THREE.GLTFExporter"},"scenes":[{"nodes":[0]}],"scene":0,"nodes":[{"name":"default","mesh":0}],"bufferViews":[{"buffer":0,"byteOffset":0,"byteLength":4248,"target":34962,"byteStride":12},{"buffer":0,"byteOffset":4248,"byteLength":4248,"target":34962,"byteStride":12},{"buffer":0,"byteOffset":8496,"byteLength":2832,"target":34962,"byteStride":8},{"buffer":0,"byteOffset":11328,"byteLength":2832,"target":34962,"byteStride":8},{"buffer":0,"byteOffset":14160,"byteLength":708,"target":34963}],"buffers":[{"byteLength":14868,"uri":"data:application/octet-stream;base64,"}],"accessors":[{"bufferView":0,"componentType":5126,"count":354,"max":[2,1.1102230246251565e-16,2],"min":[-2,-12,-2],"type":"VEC3"},{"bufferView":1,"componentType":5126,"count":354,"max":[1,1,1],"min":[-1,-1,-1],"type":"VEC3"},{"bufferView":2,"componentType":5126,"count":354,"max":[0.8333333134651184,1],"min":[0.1666666716337204,0],"type":"VEC2"},{"bufferView":3,"componentType":5126,"count":354,"max":[-1,0],"min":[-1,0],"type":"VEC2"},{"bufferView":4,"componentType":5123,"count":354,"max":[353],"min":[0],"type":"SCALAR"}],"materials":[{"pbrMetallicRoughness":{"metallicFactor":0.5,"roughnessFactor":0.5,"baseColorTexture":{"index":0}},"alphaMode":"MASK","alphaCutoff":0.01}],"textures":[{"sampler":0,"source":0}],"samplers":[{"magFilter":9728,"minFilter":9728,"wrapS":33071,"wrapT":33071}],"images":[{"mimeType":"image/png","uri":"data:image/png;base64,"}],"meshes":[{"primitives":[{"mode":4,"attributes":{"POSITION":0,"NORMAL":1,"TEXCOORD_0":2,"_UVANIMATION":3},"indices":4,"material":0}]}]}