{"asset":{"version":"2.0","generator":"THREE.GLTFExporter"},"scenes":[{"nodes":[0]}],"scene":0,"nodes":[{"name":"default","mesh":0}],"bufferViews":[{"buffer":0,"byteOffset":0,"byteLength":3456,"target":34962,"byteStride":12},{"buffer":0,"byteOffset":3456,"byteLength":3456,"target":34962,"byteStride":12},{"buffer":0,"byteOffset":6912,"byteLength":2304,"target":34962,"byteStride":8},{"buffer":0,"byteOffset":9216,"byteLength":2304,"target":34962,"byteStride":8},{"buffer":0,"byteOffset":11520,"byteLength":528,"target":34963},{"buffer":0,"byteOffset":12048,"byteLength":48,"target":34963}],"buffers":[{"byteLength":12096,"uri":"data:application/octet-stream;base64,"}],"accessors":[{"bufferView":0,"componentType":5126,"count":288,"max":[2,2,2],"min":[-2,-8,-2],"type":"VEC3"},{"bufferView":1,"componentType":5126,"count":288,"max":[1,1,1],"min":[-1,-1,-1],"type":"VEC3"},{"bufferView":2,"componentType":5126,"count":288,"max":[0.8333333134651184,1],"min":[0.1666666716337204,0],"type":"VEC2"},{"bufferView":3,"componentType":5126,"count":288,"max":[-1,0],"min":[-1,0],"type":"VEC2"},{"bufferView":4,"componentType":5123,"count":264,"max":[263],"min":[0],"type":"SCALAR"},{"bufferView":5,"componentType":5123,"count":24,"max":[287],"min":[264],"type":"SCALAR"}],"materials":[{"pbrMetallicRoughness":{"metallicFactor":0.5,"roughnessFactor":0.5,"baseColorTexture":{"index":0}},"alphaMode":"MASK","alphaCutoff":0.01},{"pbrMetallicRoughness":{"metallicFactor":0.5,"roughnessFactor":0.5,"baseColorTexture":{"index":1}},"alphaMode":"MASK","alphaCutoff":0.01}],"textures":[{"sampler":0,"source":0},{"sampler":1,"source":1}],"samplers":[{"magFilter":9728,"minFilter":9728,"wrapS":33071,"wrapT":33071},{"magFilter":9728,"minFilter":9728,"wrapS":33071,"wrapT":33071}],"images":[{"mimeType":"image/png","uri":"data:image/png;base64,"},{"mimeType":"image/png","uri":"data:image/png;base64,"}],"meshes":[{"primitives":[{"mode":4,"attributes":{"POSITION":0,"NORMAL":1,"TEXCOORD_0":2,"_UVANIMATION":3},"indices":4,"material":0},{"mode":4,"attributes":{"POSITION":0,"NORMAL":1,"TEXCOORD_0":2,"_UVANIMATION":3},"indices":5,"material":1}]}]}